<?xml version="1.0" encoding="iso-8859-1"?>
<!-- Generator: Adobe Illustrator 16.0.0, SVG Export Plug-In . SVG Version: 6.00 Build 0)  -->
<!DOCTYPE svg PUBLIC "-//W3C//DTD SVG 1.1//EN" "http://www.w3.org/Graphics/SVG/1.1/DTD/svg11.dtd">
<svg version="1.1" id="Capa_1" xmlns="http://www.w3.org/2000/svg" xmlns:xlink="http://www.w3.org/1999/xlink" x="0px" y="0px"
	 width="460.496px" height="460.496px" viewBox="0 0 460.496 460.496" style="enable-background:new 0 0 460.496 460.496;"
	 xml:space="preserve">
<g>
	<g>
		<path d="M283.9,267.487h-29.239c-4.356,0-7.896,0.711-7.896,1.595s3.54,1.595,7.896,1.595h32.433c4.362,0,7.901-3.54,7.901-7.901
			v-32.418c0-4.362-0.716-7.901-1.599-7.901c-0.884,0-1.595,3.539-1.595,7.901v29.219
			C291.802,263.953,288.262,267.487,283.9,267.487z"/>
		<path d="M205.834,267.487h-29.231c-4.359,0-7.899-3.544-7.899-7.901v-29.224c0-4.359-0.711-7.898-1.597-7.898
			c-0.883,0-1.594,3.539-1.594,7.898v32.423c0,4.362,3.54,7.901,7.899,7.901h32.431c4.359,0,7.898-0.711,7.898-1.6
			C213.732,268.203,210.201,267.487,205.834,267.487z"/>
		<path d="M176.603,141.29h29.231c4.359,0,7.898-0.711,7.898-1.594c0-0.886-3.539-1.597-7.898-1.597h-32.431
			c-4.359,0-7.898,3.54-7.898,7.901v32.428c0,4.361,0.718,7.901,1.594,7.901c0.886,0,1.597-3.54,1.597-7.901v-29.237
			C168.704,144.821,172.243,141.29,176.603,141.29z"/>
		<path d="M293.396,186.329c0.883,0,1.599-3.54,1.599-7.901V146c0-4.362-3.539-7.901-7.901-7.901h-32.433
			c-4.356,0-7.896,0.711-7.896,1.597c0,0.883,3.54,1.594,7.896,1.594H283.9c4.361,0,7.901,3.54,7.901,7.901v29.237
			C291.802,182.789,292.522,186.329,293.396,186.329z"/>
		<path d="M197.326,149.562h-13.629c-4.359,0-7.898,3.54-7.898,7.901v13.627c0,4.359,3.539,7.898,7.898,7.898h13.629
			c4.359,0,7.899-3.539,7.899-7.898v-13.627C205.225,153.094,201.685,149.562,197.326,149.562z M194.134,175.789h-7.236
			c-4.362,0-7.901-3.539-7.901-7.898v-7.239c0-4.359,3.539-7.899,7.901-7.899h7.236c4.359,0,7.899,3.54,7.899,7.899v7.239
			C202.033,172.25,198.494,175.789,194.134,175.789z"/>
		<circle cx="190.516" cy="164.271" r="6.115"/>
		<path d="M287.028,170.109v-13.626c0-4.362-3.539-7.901-7.901-7.901h-13.635c-4.356,0-7.896,3.54-7.896,7.901v13.626
			c0,4.36,3.54,7.899,7.896,7.899h13.635C283.489,178.009,287.028,174.469,287.028,170.109z M268.687,151.781h7.246
			c4.357,0,7.896,3.54,7.896,7.901v7.236c0,4.362-3.539,7.899-7.896,7.899h-7.246c-4.362,0-7.901-3.537-7.901-7.899v-7.236
			C260.785,155.32,264.324,151.781,268.687,151.781z"/>
		<circle cx="272.312" cy="163.3" r="6.114"/>
		<path d="M183.707,260.587h13.627c4.359,0,7.899-3.54,7.899-7.896v-13.629c0-4.362-3.54-7.902-7.899-7.902h-13.627
			c-4.362,0-7.901,3.54-7.901,7.902v13.629C175.805,257.058,179.337,260.587,183.707,260.587z M186.898,234.358h7.236
			c4.359,0,7.899,3.54,7.899,7.901v7.236c0,4.362-3.54,7.901-7.899,7.901h-7.236c-4.362,0-7.901-3.539-7.901-7.901v-7.236
			C178.997,237.898,182.536,234.358,186.898,234.358z"/>
		<circle cx="190.516" cy="245.871" r="6.124"/>
		<path d="M211.308,150.755c0,1.381,1.043,2.504,2.323,2.504c1.28,0,2.323,1.099,2.323,2.45c0,1.351-1.043,2.448-2.323,2.448
			c-1.279,0-2.323,2.955-2.323,6.596c0,3.644,1.043,6.599,2.323,6.599c1.28,0,2.323-1.052,2.323-2.349
			c0-1.295,2.006-2.346,4.479-2.346s4.479-1.872,4.479-4.179c0-2.306,2.005-4.179,4.479-4.179s4.481-1.123,4.481-2.511v-2.514
			v-0.789c0,0,0-0.947,0-2.118c0-1.168-1.036-2.107-2.315-2.107c-1.28,0-2.316,0.947-2.316,2.107c0,1.171-0.97,2.118-2.163,2.118
			s-2.166-0.947-2.166-2.118c0-1.168-1.036-2.107-2.316-2.107s-2.313,0.947-2.313,2.107c0,1.171-0.965,2.118-2.158,2.118
			s-2.155-0.947-2.155-2.118c0-1.168-1.044-2.107-2.323-2.107C212.344,148.251,211.308,149.371,211.308,150.755z"/>
		<ellipse cx="213.631" cy="177.946" rx="2.323" ry="2.157"/>
		<circle cx="231.572" cy="191.519" r="2.29"/>
		<ellipse cx="240.61" cy="182.417" rx="2.301" ry="6.841"/>
		<path d="M249.827,175.789c1.249,0,2.26,1.988,2.26,4.441s-1.011,4.441-2.26,4.441c-1.244,0-2.26-1.988-2.26-4.441
			S248.583,175.789,249.827,175.789z"/>
		<path d="M247.562,191.503c0,1.257,1.01,2.275,2.26,2.275h2.26h0.802c0,0,0.767,0,1.706,0c0.944,0,1.706-2.039,1.706-4.55
			c0-2.514-0.944-4.553-2.106-4.553c-1.163,0-2.107,1.021-2.107,2.277c0,1.254-1.011,2.275-2.26,2.275
			C248.583,189.229,247.562,190.246,247.562,191.503z"/>
		<path d="M193.431,187.007c0-1.287-3.539-2.331-7.901-2.331h-2.267c-4.359,0-7.899,1.122-7.899,2.506
			c0,1.381,1.011,2.504,2.26,2.504c1.247,0,2.26,0.916,2.26,2.046s2.054,2.047,4.588,2.047c2.537,0,4.598,2.013,4.598,4.494
			c0,2.48,0.98,4.496,2.181,4.496c1.208,0,2.181-2.016,2.181-4.496c0-2.488,1.991-4.494,4.449-4.494
			c2.455,0,4.446-0.995,4.446-2.219c0-1.226-1.991-2.222-4.446-2.222C195.421,189.337,193.431,188.296,193.431,187.007z"/>
		<ellipse cx="204.585" cy="187.007" rx="2.259" ry="2.331"/>
		<path d="M182.132,207.278c-1.247,0-2.26,1.005-2.26,2.245v2.244c0,0,0,0.98,0,2.189s1.013,2.188,2.26,2.188
			c1.25,0,2.26-0.98,2.26-2.188s1.043-2.189,2.331-2.189h2.331c0,0,0.98,0,2.181,0c1.208,0,2.181-1.003,2.181-2.244
			c0-1.239-0.98-2.245-2.181-2.245c-1.208,0-2.181-1.01-2.181-2.25c0-1.241-1.043-2.252-2.331-2.252
			c-1.287,0-2.331,1.011-2.331,2.252C184.392,206.275,183.382,207.278,182.132,207.278z"/>
		<circle cx="177.616" cy="218.41" r="2.251"/>
		<ellipse cx="186.472" cy="218.41" rx="2.077" ry="2.251"/>
		<ellipse cx="195.62" cy="222.96" rx="2.188" ry="2.299"/>
		<ellipse cx="206.814" cy="222.96" rx="4.486" ry="2.299"/>
		<path d="M202.5,200.494c0-1.178,0.97-2.132,2.164-2.132c1.201,0,2.166-1.028,2.166-2.293c0-1.262-1.011-2.29-2.26-2.29
			s-2.26,0.932-2.26,2.084c0,1.155-1.01,2.087-2.26,2.087c-1.246,0-2.259,2.084-2.259,4.669c0,2.582,0.95,4.669,2.117,4.669h2.118
			h0.467c0,0,0.962,0,2.156,0s2.158-1.043,2.158-2.331c0-1.287-0.964-2.331-2.158-2.331C203.47,202.619,202.5,201.669,202.5,200.494
			z"/>
		<path d="M242.911,198.361c0,0,0-0.894,0-2.001c0-1.104-1.016-1.998-2.26-1.998c-1.249,0-2.26,0.894-2.26,1.998
			c0,1.107-1.011,2.001-2.26,2.001s-2.26,1.998-2.26,4.453c0,2.465,2.021,4.456,4.52,4.456c2.493,0,4.52-1.311,4.52-2.923v-2.922
			V198.361z"/>
		<path d="M272.256,189.337c3.707,0,6.709-1.041,6.709-2.331c0-1.287-3.002-2.331-6.709-2.331c-3.706,0-6.707,1.021-6.707,2.277
			c0,1.254-1.041,2.275-2.331,2.275c-1.285,0-2.331,2.046-2.331,4.565c0,2.521,1.046,4.568,2.331,4.568
			c1.29,0,2.331-2.024,2.331-4.512C265.549,191.361,268.56,189.337,272.256,189.337z"/>
		<ellipse cx="281.153" cy="191.565" rx="2.188" ry="2.228"/>
		<ellipse cx="285.819" cy="187.007" rx="2.483" ry="2.331"/>
		<path d="M288.303,206.529c0,0,0-0.876,0-1.953c0-1.074-2.087-1.95-4.672-1.95c-2.574,0-4.666-0.134-4.666-0.31v-0.307
			c0,0,0-0.812,0-1.815c0-1.006-2.088-1.818-4.662-1.818s-4.661,0.955-4.661,2.133c0,1.178,1.046,2.125,2.33,2.125
			c1.29,0,2.331,1.044,2.331,2.331s1.041,2.331,2.331,2.331h2.331c0,0,1.041,0,2.33,0c1.285,0,2.331,1.003,2.331,2.242
			c0,1.242,1.041,2.245,2.336,2.245s2.341-1.003,2.341-2.245v-2.26V206.529L288.303,206.529z"/>
		<ellipse cx="278.965" cy="213.963" rx="4.661" ry="2.188"/>
		<path d="M229.281,164.564c0,1.153-0.98,2.092-2.188,2.092s-2.188,1.051-2.188,2.346c0,1.297-1.003,2.349-2.245,2.349
			c-1.239,0-2.242,3.537-2.242,7.898v6.635c0,4.361-1.006,7.901-2.237,7.901c-1.231,0-2.234-2.039-2.234-4.55
			c0-2.513-1.043-4.55-2.323-4.55s-2.323,1.123-2.323,2.503s-1.003,2.503-2.237,2.503c-1.231,0-2.234,0.886-2.234,1.975
			c0,1.092,1.003,1.976,2.234,1.976c1.234,0,2.237,0.244,2.237,0.546c0,0.269,0,0.536,0,0.536s0,2.813,0,6.282
			c0,3.468-1.003,6.281-2.245,6.281c-1.239,0-2.242,1.003-2.242,2.242c0,1.241-2.016,2.244-4.504,2.244s-4.501,1.089-4.501,2.44
			c0,1.351,2.1,2.443,4.7,2.443c2.598,0,4.7-0.112,4.7-0.247s0.917-0.244,2.054-0.244c1.137,0,2.054,1.011,2.054,2.252
			c0,1.239,0.957,2.25,2.133,2.25c1.178,0,2.141,1.028,2.141,2.3c0,1.272-0.955,2.298-2.141,2.298c-1.176,0-2.133,1.028-2.133,2.3
			s1.044,2.297,2.323,2.297c1.28,0,2.323-1.025,2.323-2.297s0.97-2.3,2.171-2.3s2.173-3.017,2.173-6.738
			c0-3.72,1.65-6.746,3.689-6.746h3.689h1.604c0,0,1.026,0,2.29,0c1.265,0,2.293-1.003,2.293-2.245c0-1.239-1.028-2.242-2.293-2.242
			c-1.264,0-2.29-3.026-2.29-6.749c0-3.727-0.98-6.746-2.188-6.746c-1.209,0-2.188-1.01-2.188-2.26c0-1.246,0.979-2.26,2.188-2.26
			c1.208,0,2.188-1.025,2.188-2.29c0-1.264-0.98-2.29-2.188-2.29c-1.209,0-2.188-1.99-2.188-4.44c0-2.448,0.979-4.441,2.188-4.441
			c1.208,0,2.188,1.993,2.188,4.441c0,2.45,1.026,4.44,2.29,4.44c1.265,0,2.293-2.039,2.293-4.55c0-2.514-1.028-4.553-2.293-4.553
			c-1.264,0-2.29-0.97-2.29-2.17s1.026-2.173,2.29-2.173c1.265,0,2.293-1.019,2.293-2.283s0.898-2.283,2.006-2.283h2.006h0.441
			c0,0,1.026,0,2.301,0c1.264,0,2.3,1.019,2.3,2.283s1.041,2.283,2.331,2.283h2.325h0.808c0,0,0.833,0,1.858,0
			c1.026,0,1.854-3.54,1.854-7.899v-7.172c0-4.362-1.01-7.901-2.26-7.901c-1.244,0-2.26,2.084-2.26,4.661
			c0,2.575-1.041,4.662-2.325,4.662c-1.29,0-2.331-2.087-2.331-4.662c0-2.577-0.949-4.661-2.117-4.661
			c-1.173,0-2.117,2.219-2.117,4.953c0,2.732,0.944,4.954,2.117,4.954c1.168,0,2.117,0.962,2.117,2.155s-1.03,2.158-2.3,2.158
			c-1.265,0-2.301-0.932-2.301-2.095c0-1.152-0.995-2.092-2.229-2.092c-1.229,0-2.224,0.932-2.224,2.092
			c0,1.153-1.028,2.095-2.293,2.095C230.307,162.47,229.281,163.409,229.281,164.564z"/>
		<path d="M238.381,211.774c2.499,0,4.52,0.98,4.52,2.188c0,1.209-2.021,2.188-4.52,2.188c-2.493,0-4.52-0.979-4.52-2.188
			C233.861,212.755,235.888,211.774,238.381,211.774z"/>
		<path d="M247.562,213.93c0,1.226-1.047,2.221-2.331,2.221c-1.29,0-2.331,2.037-2.331,4.55c0,2.511,0.955,4.55,2.133,4.55
			s2.133,2.006,2.133,4.481c0,2.474-0.955,4.479-2.133,4.479s-2.133,0.979-2.133,2.178c0,1.209,0.955,2.184,2.133,2.184
			s2.133,0.945,2.133,2.112c0,1.174,1.097,2.118,2.458,2.118c1.36,0,2.463,1.193,2.463,2.671s-1.011,2.671-2.26,2.671
			c-1.244,0-2.26,0.909-2.26,2.031s0.863,2.031,1.93,2.031s1.93,1.087,1.93,2.438c0,1.346,1.127,2.442,2.523,2.442
			c1.401,0,2.529,0.979,2.529,2.188s1.97,2.188,4.392,2.188h4.393h4.378h10.166c4.361,0,7.901-0.979,7.901-2.188
			s-1.961-2.188-4.378-2.188s-4.377-1.138-4.377-2.544c0-1.407,0.98-2.544,2.188-2.544c1.209,0,2.188-0.858,2.188-1.92
			c0-1.056,0.554-1.919,1.239-1.919c0.69,0,1.244-0.117,1.244-0.27c0-0.147,0.427-0.27,0.949-0.27c0.519,0,0.945-3.539,0.945-7.896
			v-6.562c0-4.359,0.137-7.898,0.294-7.898s0.29-1.018,0.29-2.275c0-1.254-0.133-2.275-0.29-2.275s-0.294-1.018-0.294-2.275
			s-0.914-2.275-2.047-2.275c-1.127,0-2.047,1.018-2.047,2.275s-2.081,2.275-4.661,2.275c-2.574,0-4.661-1.018-4.661-2.275
			s-1.041-2.275-2.326-2.275c-1.29,0-2.336,1.018-2.336,2.275s-0.975,2.275-2.184,2.275c-1.208,0-2.188-1.018-2.188-2.275
			s-0.979-2.275-2.188-2.275s-2.188,1.018-2.188,2.275s-2.128,2.275-4.743,2.275s-4.737-1.018-4.737-2.275s1.127-2.275,2.528-2.275
			h2.529c0,0,0.984,0,2.203,0c1.214,0,2.204-0.995,2.204-2.219c0-1.226,0.98-2.221,2.188-2.221c1.209,0,2.189,0.995,2.189,2.221
			c0,1.224,0.975,2.219,2.188,2.219c1.208,0,2.188-0.995,2.188-2.219v-2.221c0,0,0-1.999,0-4.464c0-2.463-1.96-4.471-4.377-4.471
			c-2.418,0-4.378-0.988-4.378-2.204c0-1.216-1.976-2.204-4.407-2.204c-2.433,0-4.408,0.995-4.408,2.227
			c0,1.234,0.985,2.229,2.194,2.229c1.219,0,2.198,0.995,2.198,2.227c0,1.234-3.041,2.229-6.789,2.229
			c-3.753,0-6.784,0.995-6.784,2.211c0,1.224,1.041,2.212,2.331,2.212C246.485,211.719,247.562,212.706,247.562,213.93z
			 M276.634,225.259c3.864,0,6.992,1.028,6.992,2.301c0,1.271-3.128,2.3-6.992,2.3s-6.992-1.028-6.992-2.3
			C269.642,226.287,272.779,225.259,276.634,225.259z M269.642,236.405c0-1.209,3.128-2.179,6.992-2.179s6.992,2.087,6.992,4.662
			c0,2.574-2.087,4.661-4.661,4.661c-2.575,0-4.662,0.909-4.662,2.036c0,1.133-1.041,2.036-2.331,2.036
			c-1.284,0-2.33-2.021-2.33-4.509v-4.509C269.642,238.589,269.642,237.614,269.642,236.405z M271.972,251.995
			c1.29,0,2.331,1.137,2.331,2.544c0,1.406-1.041,2.544-2.331,2.544c-1.284,0-2.33-1.138-2.33-2.544
			C269.642,253.137,270.688,251.995,271.972,251.995z M263.086,257.088c-1.209,0-2.189-1.138-2.189-2.544
			c0-1.407,0.98-2.544,2.189-2.544c1.208,0,2.188,1.137,2.188,2.544C265.274,255.95,264.294,257.088,263.086,257.088z
			 M258.678,225.259c3.641,0,6.597,2.986,6.597,6.668s-2.956,6.667-6.597,6.667s-6.591-2.985-6.591-6.667
			C252.087,228.237,255.037,225.259,258.678,225.259z"/>
		<path d="M233.861,222.961c0,1.272-0.805,2.298-1.808,2.298c-0.995,0-1.81-1.927-1.81-4.306c0-2.377-1.201-4.304-2.668-4.304
			c-1.478,0-2.671,2.953-2.671,6.604c0,3.651,0.599,6.606,1.335,6.606h1.335c0,0,0.378,0,0.853,0c0.472,0,0.853,1.955,0.853,4.367
			c0,2.407,1.026,4.367,2.291,4.367c1.264,0,2.29-1.95,2.29-4.367c0-2.412,0.381-4.367,0.838-4.367h0.838c0,0,0.63,0,1.422,0
			c0.782,0,1.422-2.064,1.422-4.601c0-2.534-1.01-4.598-2.26-4.598C234.872,220.661,233.861,221.689,233.861,222.961z"/>
		<path d="M222.667,229.85c1.242,0,2.245,1.955,2.245,4.367c0,2.417-1.003,4.372-2.245,4.372c-1.239,0-2.242-1.955-2.242-4.372
			C220.425,231.805,221.428,229.85,222.667,229.85z"/>
		<ellipse cx="218.001" cy="241.067" rx="2.424" ry="2.473"/>
		<path d="M213.44,260.881h2.141c0,0,1.084,0,2.427,0c1.333,0,2.425-1.944,2.425-4.337c0-2.396-1.082-4.336-2.425-4.336
			c-1.335,0-2.427-1.945-2.427-4.337c0-2.396-0.955-4.337-2.141-4.337c-1.175,0-2.132,3.54-2.132,7.896v1.544
			C211.308,257.352,212.265,260.881,213.44,260.881z"/>
		<path d="M224.904,252.351c0,2.32,0.98,4.193,2.188,4.193s2.188-1.878,2.188-4.193c0-2.316,1.026-4.195,2.291-4.195
			c1.264,0,2.29-1.035,2.29-2.311c0-1.27-1.025-2.305-2.29-2.305c-1.265,0-2.291-0.854-2.291-1.895c0-1.051-0.98-1.898-2.188-1.898
			s-2.188,0.853-2.188,1.898c0,1.051-1.003,1.895-2.245,1.895c-1.239,0-2.242,1.035-2.242,2.305c0,1.275,1.003,2.311,2.242,2.311
			C223.901,248.155,224.904,250.034,224.904,252.351z"/>
		<path d="M240.651,229.859c1.244,0,2.26,0.976,2.26,2.179s-1.016,2.179-2.26,2.179c-1.249,0-2.26-0.976-2.26-2.179
			S239.402,229.859,240.651,229.859z"/>
		<path d="M240.61,238.594c1.27,0,2.301,2.143,2.301,4.778c0,2.641-1.031,4.783-2.301,4.783s-2.3-2.143-2.3-4.783
			C238.311,240.736,239.341,238.594,240.61,238.594z"/>
		<path d="M238.381,252.213c2.499,0,4.52,1.945,4.52,4.337c0,2.396-2.021,4.336-4.52,4.336c-2.493,0-4.52-1.939-4.52-4.336
			C233.861,254.158,235.888,252.213,238.381,252.213z"/>
		<ellipse cx="258.597" cy="232.038" rx="2.3" ry="2.179"/>
		<path d="M156.197,460.496h148.096c24.141,0,51.664-28.681,51.664-53.847V53.844C355.957,28.675,328.434,0,304.293,0H156.197
			c-24.141,0-51.658,28.683-51.658,53.844v352.8C104.539,431.815,132.056,460.496,156.197,460.496z M116.391,53.844
			c0-19.243,21.574-41.995,39.806-41.995h148.096c18.23,0,39.816,22.759,39.816,41.995v352.8c0,19.245-21.591,41.995-39.816,41.995
			H156.197c-18.232,0-39.806-22.76-39.806-41.995V53.844L116.391,53.844z"/>
		<path d="M238.889,394.366c-0.381-0.305-0.934-0.244-1.233,0.142c-0.3,0.392-0.239,0.939,0.132,1.234
			c2.94,2.331,4.621,5.799,4.621,9.552c0,6.713-5.449,12.156-12.165,12.156c-6.706,0-12.164-5.443-12.164-12.156
			c0-3.783,1.706-7.267,4.684-9.598c0.386-0.295,0.457-0.848,0.158-1.234c-0.3-0.386-0.853-0.451-1.231-0.157
			c-3.405,2.671-5.365,6.668-5.365,10.989c0,7.668,6.248,13.918,13.926,13.918s13.928-6.25,13.928-13.918
			C244.17,401.003,242.251,397.021,238.889,394.366z"/>
		<path d="M230.244,406.172c0.49,0,0.878-0.406,0.878-0.878v-13.051c0-0.478-0.396-0.879-0.878-0.879
			c-0.49,0-0.876,0.401-0.876,0.879v13.051C229.368,405.766,229.761,406.172,230.244,406.172z"/>
		<path d="M230.244,379.106c-14.929,0-27.065,12.142-27.065,27.065c0,14.919,12.136,27.061,27.065,27.061
			c14.932,0,27.068-12.142,27.068-27.061C257.312,391.248,245.176,379.106,230.244,379.106z M230.244,429.287
			c-12.743,0-23.115-10.364-23.115-23.115s10.364-23.12,23.115-23.12c12.744,0,23.118,10.369,23.118,23.12
			S242.987,429.287,230.244,429.287z"/>
		<path d="M162.217,361.979h136.069c10.349,0,18.763-8.409,18.763-18.763V91.401c0-10.342-8.414-18.761-18.763-18.761H162.217
			c-10.339,0-18.761,8.419-18.761,18.761v251.814C143.456,353.569,151.868,361.979,162.217,361.979z M149.379,91.401
			c0-7.076,5.758-12.837,12.837-12.837h136.069c7.089,0,12.837,5.761,12.837,12.837v251.814c0,7.078-5.748,12.837-12.837,12.837
			H162.217c-7.079,0-12.837-5.759-12.837-12.837V91.401z"/>
		<circle cx="192.515" cy="46.086" r="4.937"/>
		<circle cx="225.315" cy="46.086" r="4.937"/>
		<circle cx="258.109" cy="46.086" r="4.937"/>
	</g>
</g>
<g>
</g>
<g>
</g>
<g>
</g>
<g>
</g>
<g>
</g>
<g>
</g>
<g>
</g>
<g>
</g>
<g>
</g>
<g>
</g>
<g>
</g>
<g>
</g>
<g>
</g>
<g>
</g>
<g>
</g>
</svg>
